<?xml version="1.0" encoding="UTF-8"?>
<svg id="Layer_1" data-name="Layer 1" xmlns="http://www.w3.org/2000/svg" viewBox="0 0 180.92 169">
  <path d="M97.62,125.37c-.27-4.45,5.16-9.01,5.44-10.97.38-2.72,1.42-4.61,2.5-7.07,1.02-2.32.42-6.02-1.14-8.04-1.95-2.52-3.93-5.03-4.83-7.97-.12-.39-.82-.97-1.21-1.03-4.06-.65-8.25-1.72-12.26-2.86-2.52-.71-5-1.47-7.65-1.57l-47.42,14.38c-2.13.64-8.28,2.44-9.72,1.72s6.35-3.45,6.7-3.59l13.75-5.32c4.95-1.91,15.56-7.42,18.48-12.4-3.48-4.28-14.99-7.02-20.23-7.95l-16.43-2.91c-1.67-.3-3.34-.7-4.95-1.47.14-.83,1.08-1.16,1.8-1.1l18.72,1.5c11.29.9,22.28,1.79,33.6,1.91,8.93.09,16.09-3.16,23.43-7.85-1.93-5.09-.95-13.71.49-18.52.31-1.03-.04-1.96-.89-2.61-3.98-3.04-2.5-4.92-6.06-6.54-6.54-2.99-5.41-6.46-9.86-7.41-4.21-.9-7.01-3.4-10.46-5.56-6.56-4.1-17.02-5.85-21.12-7.93-.26-.13-.63-.74-.68-.97-.28-1.28,2.99-1.7,4.1-1.8,24.32-2.23,47.05,3.38,68.73,14.14,2.48,1.23,4.69,2.71,6.67,4.53,6.44,5.9-1.9,13.51,1.01,21.28.1.26.41.65.6.77s.91-.06,1.08-.2l4.86-3.78c7-5.45,18.71-6.96,24.96.34,2.33,2.72,3.24.85,8.83,3.06.22.09.72.55.71.77-.01.95-5.68,3.39-6.91,4.91-3.44,12.01-14.11,21.53-25.05,26.95l2.79,4.98c1.91,3.41,2.31,7.2.95,10.93-3.75,10.29-14.1,21.55-22.06,29.14-10.48,9.98-22.35,18.11-35.63,23.87-1.94.84-9.55,4.14-10.63,2.49-.88-1.35,2.35-3.9,3.47-4.85,3.61-3.06,6.96-6.16,10.18-9.64,1.21-1.31,2.62-2.03,4.32-2.7,5.79-2.26,10.98-5.8,15.44-9.73-5.7,2.95-10.26,6.74-16.53,8.76,1.6-3.89,4.09-8.41,7.83-10.46,5.69-3.1,11.6-5.57,15.94-10.55-5.06,3.3-9.86,6.39-15.67,8.92ZM93.08,24.32c-3.69-1.95-18.54-3.99-21.4-2.98-.4.14.64.58.81.59,6.77.34,13.94,1.31,20.58,2.39ZM103.07,30.95c-5.94-2.14-11.87-2.75-18.06-2.52.06.35.65.85,1.01.85,5.85.07,11.37.95,17.05,1.67ZM109.02,36.65c-5.31-1.93-10.56-2.09-15.8-1.5.27.68.96.73,1.67.73,4.87-.04,9.56.32,14.13.78ZM108.78,41.27c-3.31-.92-7.06-1.06-10.16.79l10.16-.79ZM107,46.16c-2.72-.04-8.68,1.83-8.9,4.4,3.02-2.01,5.89-3.21,8.9-4.4ZM97.91,58.47c2.45-2.45,4.77-4.33,7.74-6.35-2.05-.07-7.81,3.9-7.74,6.35ZM151.63,51.6c-.22-1.38-1.74-1.86-3-1.55-1.48.36-2.43,1.57-2.52,3.03-.07,1.19.69,2.47,1.98,2.92,1.11.39,2.7.21,3.37-.85-1.4.23-2.61.29-3.3-.83-.43-.7-.24-2.14.6-2.76.65-.48,1.8-.28,2.86.04ZM67.03,74.25c-4.34-.64-8.38-1.07-12.69-.97,5.31,3.81,6.67,2.4,12.69.97ZM165.81,52.39c-1.71-.36-3.38-.51-5.06-.26l-2.36,2.56c2.65-1.02,4.84-1.73,7.41-2.3ZM136.33,82.06c9.72-4.67,20.41-14.47,23.71-24.88l-3.09-.58c-2.85-.53-2.57,2.38-8.45,3.05-3.73.43-6.48,3.78-5.63,7.48-4.48,1.43-10.12,3.43-9.18,9.24.34,2.09,1.12,4.15,2.64,5.68ZM68.93,77.54c-1.53-1.1-8.26.04-6.08,1.27,1.49.84,4.87-.07,6.08-1.27ZM69.7,81.4c-2.03-.62-7.5-.91-7.04,1.81,2.47-.3,4.79-.8,7.04-1.81ZM66.46,86.01l8.69-2.7-15.44,2.53-3.58,2.93c3.68-.7,6.8-1.66,10.33-2.76ZM97.6,87.64l-.39-5.34c-5.03-1.06-9.84-.51-14.37,1.98l9.75,2.54c1.67.44,3.29.66,5.02.82ZM112.07,87.12c-4.28-.53-8.01-1.17-11.87-2.56.62,2.52,10.41,3.3,11.87,2.56ZM114.77,91.75c-4.53.34-8.14.41-12.38-.31,1.27,2.76,11.35,1.28,12.38.31ZM117.77,95.85l-10.85,3.36c.5,1.86,10.43-2.36,10.85-3.36ZM107.44,106.77c4.76-1.24,9.07-3.51,12.56-6.98-3.74,2-7.15,4.02-11,5.68-.65.28-1.3.67-1.56,1.29ZM118.44,106.7l-13.66,7.66c-.13.07-.41.41-.49.53-.05.08,0,.23.1.24,2.33.09,12.4-6.26,14.05-8.43Z"/>
</svg>