<?xml version="1.0" encoding="UTF-8"?>
<svg id="Layer_1" data-name="Layer 1" xmlns="http://www.w3.org/2000/svg" viewBox="0 0 1062 409.61">
  <defs>
    <style>
      .cls-1 {
        fill: #fff;
      }
    </style>
  </defs>
  <g>
    <path class="cls-1" d="M121.54,319.77c0,1.12-.43,2.02-1.29,2.68-.86.66-2.15.99-3.87.99h-33.83c-1.72,0-3.01-.33-3.87-.99-.86-.66-1.29-1.55-1.29-2.68,0-1.79,1.29-3.14,3.87-4.07l5.85-1.49c3.04-.99,5.08-2.08,6.1-3.27,1.02-1.19,1.54-3.14,1.54-5.85v-91.87c0-1.92-.27-3.55-.79-4.91-.53-1.35-1.85-3.26-3.97-5.71l-8.73-10.52c-.86-1.19-1.46-2.08-1.79-2.68-.33-.6-.5-1.22-.5-1.88,0-.99.36-1.74,1.09-2.23.73-.5,1.65-.74,2.78-.74h17.07c1.72,0,3.16.3,4.32.89,1.16.6,2.36,1.72,3.62,3.37l83.64,107.65-4.17,8.83v-102.39c0-2.64-.48-4.58-1.44-5.8-.96-1.22-3.03-2.33-6.2-3.32l-5.75-1.49c-2.58-.99-3.87-2.35-3.87-4.07,0-1.19.43-2.1,1.29-2.73.86-.63,2.15-.94,3.87-.94h33.83c1.72,0,2.99.31,3.82.94.83.63,1.24,1.54,1.24,2.73,0,1.79-1.26,3.14-3.77,4.07l-5.85,1.49c-3.04.93-5.08,2-6.1,3.22-1.03,1.22-1.54,3.19-1.54,5.9v95.84c0,1.98.18,3.61.55,4.86.36,1.26.97,2.48,1.83,3.67l6.15,7.74c.99,1.32,1.62,2.33,1.89,3.03.26.69.4,1.41.4,2.13,0,.99-.36,1.79-1.09,2.38-.73.59-1.79.89-3.18.89h-20.14c-2.65,0-3.97-1.06-3.97-3.17,0-1.06-.18-2.02-.55-2.88-.36-.86-1.47-2.45-3.32-4.76l-78.48-101.4,7.24-5.66v99.51c0,2.65.5,4.56,1.49,5.75.99,1.19,3.08,2.32,6.25,3.37l5.75,1.49c2.58.93,3.87,2.28,3.87,4.07Z"/>
    <path class="cls-1" d="M299.13,265.3c0,3.11-.91,5.47-2.73,7.09-1.82,1.62-4.48,2.43-7.99,2.43h-63.4v-6.45h47.72c3.31,0,4.96-1.45,4.96-4.37,0-8.8-1.92-15.68-5.75-20.64-3.84-4.96-8.96-7.44-15.38-7.44-5.03,0-9.46,1.44-13.29,4.32-3.84,2.88-6.85,6.94-9.03,12.2-2.18,5.26-3.27,11.43-3.27,18.5,0,13.16,3.16,23.13,9.48,29.91,6.32,6.78,14.6,10.17,24.85,10.17,6.55,0,12.24-1.45,17.07-4.37,4.83-2.91,8.23-6.78,10.22-11.61.86-1.12,1.57-1.9,2.13-2.33.56-.43,1.21-.64,1.93-.64.93,0,1.59.4,1.98,1.19.4.79.6,1.72.6,2.78-.4,5.42-2.38,10.38-5.95,14.88-3.57,4.5-8.32,8.09-14.24,10.76-5.92,2.68-12.65,4.02-20.19,4.02-9.33,0-17.55-1.95-24.66-5.85-7.11-3.9-12.65-9.39-16.62-16.47-3.97-7.08-5.95-15.38-5.95-24.9s1.92-18.29,5.75-25.89c3.83-7.61,9.33-13.61,16.47-18.01,7.14-4.4,15.64-6.6,25.5-6.6,8.13,0,15.18,1.59,21.13,4.76,5.95,3.17,10.55,7.56,13.79,13.15,3.24,5.59,4.86,12.05,4.86,19.4Z"/>
    <path class="cls-1" d="M344.15,235.53c-4.96,0-8.88,1.27-11.76,3.82-2.88,2.55-4.32,5.87-4.32,9.97,0,2.58.6,4.88,1.79,6.9,1.19,2.02,3.34,3.87,6.45,5.56,3.11,1.69,7.54,3.26,13.29,4.71,9.19,2.12,16.39,4.71,21.58,7.79,5.19,3.08,8.85,6.56,10.96,10.47,2.12,3.9,3.17,8.23,3.17,13,0,8.4-3.03,15.16-9.08,20.29-6.05,5.13-14.7,7.69-25.94,7.69-4.1,0-7.49-.36-10.17-1.09-2.68-.73-4.91-1.45-6.7-2.18-1.79-.73-3.37-1.09-4.76-1.09s-2.35.38-3.08,1.14c-.73.76-1.42,1.5-2.08,2.23-.66.73-1.59,1.09-2.78,1.09-.93,0-1.65-.28-2.18-.84-.53-.56-1.03-1.57-1.49-3.03l-7.34-20.74c-.59-1.85-.78-3.39-.55-4.61.23-1.22.98-2.07,2.23-2.53,1.26-.46,2.36-.45,3.32.05.96.5,1.8,1.37,2.53,2.63,2.91,5.42,6.07,9.71,9.48,12.85,3.41,3.14,7.01,5.38,10.81,6.7,3.8,1.32,7.69,1.98,11.66,1.98,6.28,0,11-1.32,14.14-3.97,3.14-2.64,4.71-6.15,4.71-10.52,0-2.58-.66-4.94-1.98-7.09-1.32-2.15-3.74-4.15-7.24-6-3.51-1.85-8.5-3.57-14.98-5.16-8.07-1.92-14.5-4.27-19.3-7.04-4.8-2.78-8.24-6.12-10.32-10.02-2.08-3.9-3.13-8.43-3.13-13.59s1.32-9.95,3.97-13.99c2.64-4.03,6.38-7.19,11.21-9.47,4.83-2.28,10.48-3.42,16.96-3.42,4.17,0,7.56.4,10.17,1.19,2.61.79,4.76,1.6,6.45,2.43,1.69.83,3.19,1.24,4.51,1.24,1.45,0,2.58-.41,3.37-1.24.79-.83,1.52-1.64,2.18-2.43.66-.79,1.55-1.19,2.68-1.19.79,0,1.47.28,2.03.84.56.56.98,1.5,1.24,2.83l5.66,19.74c.46,1.98.63,3.62.5,4.91-.13,1.29-.86,2.2-2.18,2.73-1.19.46-2.25.36-3.17-.3-.93-.66-1.88-1.79-2.88-3.37-3.77-7.21-8.27-12.32-13.49-15.33-5.23-3.01-10.62-4.51-16.17-4.51Z"/>
    <path class="cls-1" d="M397.47,238.41l-5.16-1.39c-1.72-.46-2.89-1.01-3.52-1.64-.63-.63-.94-1.34-.94-2.13,0-1.06.36-1.85,1.09-2.38.73-.53,1.72-.79,2.98-.79h6.35c1.79,0,3.22-.28,4.32-.84,1.09-.56,2.03-1.6,2.83-3.12l7.84-14.39c.99-1.59,1.98-2.73,2.98-3.42s2.05-1.04,3.17-1.04,2.02.36,2.68,1.09c.66.73.99,1.75.99,3.08v87.41c0,4.56.94,8.04,2.83,10.42,1.89,2.38,4.48,3.57,7.79,3.57,2.45,0,4.35-.41,5.7-1.24,1.36-.83,2.41-1.79,3.17-2.88.76-1.09,1.49-2.03,2.18-2.83.69-.79,1.57-1.19,2.63-1.19.86,0,1.5.26,1.93.79.43.53.64,1.42.64,2.68,0,2.84-1.03,5.56-3.08,8.14-2.05,2.58-4.88,4.7-8.48,6.35-3.61,1.65-7.75,2.48-12.45,2.48-7.28,0-13.08-1.9-17.41-5.71-4.33-3.8-6.5-9.54-6.5-17.21v-58.04c0-1.65-.33-2.91-.99-3.77-.66-.86-1.85-1.52-3.57-1.98ZM413.64,238.01v-7.94h31.25c1.39,0,2.45.25,3.17.74.73.5,1.09,1.27,1.09,2.33,0,1.39-.71,2.55-2.13,3.47-1.42.93-3.66,1.39-6.7,1.39h-26.69Z"/>
    <path class="cls-1" d="M541.39,265.3c0,3.11-.91,5.47-2.73,7.09-1.82,1.62-4.48,2.43-7.99,2.43h-63.4v-6.45h47.72c3.31,0,4.96-1.45,4.96-4.37,0-8.8-1.92-15.68-5.75-20.64-3.84-4.96-8.96-7.44-15.38-7.44-5.03,0-9.46,1.44-13.29,4.32-3.84,2.88-6.85,6.94-9.03,12.2-2.18,5.26-3.27,11.43-3.27,18.5,0,13.16,3.16,23.13,9.48,29.91,6.32,6.78,14.6,10.17,24.85,10.17,6.55,0,12.24-1.45,17.07-4.37,4.83-2.91,8.23-6.78,10.22-11.61.86-1.12,1.57-1.9,2.13-2.33.56-.43,1.21-.64,1.93-.64.93,0,1.59.4,1.98,1.19.4.79.6,1.72.6,2.78-.4,5.42-2.38,10.38-5.95,14.88-3.57,4.5-8.32,8.09-14.24,10.76-5.92,2.68-12.65,4.02-20.19,4.02-9.33,0-17.55-1.95-24.66-5.85-7.11-3.9-12.65-9.39-16.62-16.47-3.97-7.08-5.95-15.38-5.95-24.9s1.92-18.29,5.75-25.89c3.83-7.61,9.33-13.61,16.47-18.01,7.14-4.4,15.64-6.6,25.5-6.6,8.13,0,15.18,1.59,21.13,4.76,5.95,3.17,10.55,7.56,13.79,13.15,3.24,5.59,4.86,12.05,4.86,19.4Z"/>
    <path class="cls-1" d="M579.94,234.05l1.19,23.02v52.48c0,1.72.38,3.01,1.14,3.87.76.86,2.07,1.42,3.92,1.69l8.93,1.29c1.39.2,2.43.59,3.12,1.19.69.59,1.04,1.42,1.04,2.48s-.4,1.88-1.19,2.48c-.79.59-1.95.89-3.47.89h-42.17c-1.52,0-2.65-.3-3.37-.89-.73-.6-1.09-1.42-1.09-2.48,0-.79.28-1.49.84-2.08.56-.59,1.44-1.06,2.63-1.39l4.66-1.09c1.32-.33,2.31-.94,2.98-1.83.66-.89.99-2.23.99-4.02v-61.21c0-1.52-.25-2.63-.74-3.32s-1.34-1.11-2.53-1.24l-6.65-.3c-1.19-.13-2.03-.45-2.53-.94s-.74-1.14-.74-1.93c0-.86.3-1.57.89-2.13.6-.56,1.62-1.11,3.08-1.64l16.07-5.75c2.64-.93,4.61-1.55,5.9-1.89,1.29-.33,2.3-.5,3.03-.5,1.26,0,2.22.4,2.88,1.19.66.79,1.06,2.15,1.19,4.07ZM577.56,271.55c0-9.39,1.39-17.33,4.17-23.81,2.78-6.48,6.4-11.39,10.86-14.73,4.46-3.34,9.21-5.01,14.24-5.01,6.02,0,10.7,1.65,14.04,4.96,3.34,3.31,5.01,7.91,5.01,13.79,0,4.56-.98,8.02-2.93,10.37-1.95,2.35-4.48,3.52-7.59,3.52s-5.52-.88-7.24-2.63c-1.72-1.75-2.58-4.18-2.58-7.29v-3.37c-.07-2.25-.61-3.92-1.64-5.01-1.03-1.09-2.76-1.64-5.21-1.64-2.84,0-5.62,1.14-8.33,3.42-2.71,2.28-4.93,5.69-6.65,10.22-1.72,4.53-2.58,10.27-2.58,17.21h-3.57Z"/>
    <path class="cls-1" d="M685.3,324.63h-7.04c-1.65,0-3.09-.41-4.32-1.24-1.22-.83-2.2-2.23-2.93-4.22l-25.6-74.81c-.86-2.51-1.69-4.18-2.48-5.01-.79-.83-1.79-1.37-2.98-1.64l-3.67-.69c-1.32-.4-2.23-.86-2.73-1.39-.5-.53-.74-1.25-.74-2.18,0-1.06.4-1.88,1.19-2.48.79-.59,1.89-.89,3.27-.89h38.5c1.39,0,2.48.28,3.27.84.79.56,1.19,1.37,1.19,2.43,0,.93-.28,1.67-.84,2.23s-1.54,1.01-2.93,1.34l-4.07.69c-2.65.4-4.2,1.27-4.66,2.63-.46,1.36-.03,4.05,1.29,8.09l21.03,64.19-4.56,3.37,24.7-72.62,7.24,5.46-25,71.04c-.66,1.85-1.64,3.12-2.93,3.82-1.29.7-2.7,1.04-4.22,1.04ZM746.62,324.63h-6.95c-1.46,0-2.84-.43-4.17-1.29-1.32-.86-2.32-2.25-2.98-4.17l-25.5-75.7c-.73-2.12-1.46-3.54-2.18-4.27-.73-.73-1.69-1.22-2.88-1.49l-3.87-.69c-1.26-.4-2.13-.86-2.63-1.39-.5-.53-.74-1.29-.74-2.28,0-2.18,1.49-3.27,4.46-3.27h36.61c2.98,0,4.46,1.13,4.46,3.37,0,.93-.28,1.67-.84,2.23-.56.56-1.47.94-2.73,1.14l-4.66.69c-1.85.26-2.96,1.12-3.32,2.58-.36,1.46.02,3.9,1.14,7.34l21.13,65.38-4.46,3.47,21.63-66.87c1.39-4.3,1.87-7.23,1.44-8.78-.43-1.55-2.1-2.56-5.01-3.03l-4.07-.69c-1.39-.33-2.38-.76-2.98-1.29-.59-.53-.89-1.29-.89-2.28,0-1.06.4-1.87,1.19-2.43.79-.56,1.88-.84,3.27-.84h26.49c1.32,0,2.38.3,3.17.89.79.6,1.19,1.42,1.19,2.48,0,.79-.25,1.49-.74,2.08-.5.59-1.44,1.06-2.83,1.39l-3.67.6c-1.26.26-2.35,1.08-3.27,2.43-.93,1.36-1.98,3.82-3.17,7.39l-24.61,72.23c-.66,1.92-1.64,3.24-2.93,3.97-1.29.73-2.66,1.09-4.12,1.09Z"/>
    <path class="cls-1" d="M791.04,302.8c0-7.87,3.52-14.32,10.57-19.35,7.04-5.03,16.78-7.54,29.22-7.54,4.5,0,8.63.41,12.4,1.24,3.77.83,7.11,1.9,10.02,3.22l-1.59,5.46c-2.78-1.12-5.61-2.07-8.48-2.83-2.88-.76-6.04-1.14-9.48-1.14-6.55,0-11.67,1.55-15.38,4.66-3.71,3.11-5.56,7.38-5.56,12.8s1.5,9.44,4.51,12.25c3.01,2.81,6.86,4.22,11.56,4.22,4.43,0,8.7-1.01,12.8-3.03,4.1-2.02,7.64-4.88,10.62-8.58l2.08,4.66c-3.9,5.36-8.95,9.51-15.13,12.45-6.19,2.94-12.75,4.42-19.69,4.42-8.4,0-15.25-2.07-20.54-6.2-5.29-4.13-7.94-9.71-7.94-16.72ZM850.28,311.13v-1.98l-1.29-.59v-56.65c0-5.69-1.44-10.05-4.32-13.1-2.88-3.04-6.96-4.56-12.25-4.56s-8.8,1.03-11.31,3.08c-2.51,2.05-3.77,4.53-3.77,7.44v7.84c0,3.17-1.04,5.62-3.12,7.34-2.08,1.72-4.98,2.58-8.68,2.58-3.24,0-5.72-.84-7.44-2.53-1.72-1.69-2.58-3.92-2.58-6.7,0-4.1,1.6-8.07,4.81-11.91,3.21-3.83,7.85-7.01,13.94-9.52,6.08-2.51,13.46-3.77,22.12-3.77,11.31,0,19.71,2.43,25.2,7.29,5.49,4.86,8.24,11.36,8.24,19.5v53.67c0,2.12.41,3.67,1.24,4.66.83.99,1.97,1.49,3.42,1.49,1.65,0,2.83-.38,3.52-1.14.7-.76,1.31-1.5,1.84-2.23.33-.4.68-.74,1.04-1.04.36-.3.81-.45,1.34-.45.73,0,1.26.25,1.59.74.33.5.5,1.18.5,2.03,0,1.92-.66,3.89-1.98,5.9-1.32,2.02-3.24,3.72-5.75,5.11-2.51,1.39-5.66,2.08-9.42,2.08-5.23,0-9.34-1.24-12.35-3.72-3.01-2.48-4.51-6.1-4.51-10.86Z"/>
    <path class="cls-1" d="M938.97,311.63l-10.81,21.63-38.5-88.5c-1.12-2.71-2.3-4.53-3.52-5.46-1.22-.92-3.29-1.69-6.2-2.28-1.32-.4-2.23-.86-2.73-1.39-.5-.53-.74-1.25-.74-2.18,0-1.06.4-1.88,1.19-2.48.79-.59,1.89-.89,3.27-.89h39.98c1.39,0,2.48.28,3.27.84.79.56,1.19,1.37,1.19,2.43,0,.93-.28,1.67-.84,2.23s-1.54,1.01-2.93,1.34l-4.17.69c-3.24.6-5.13,1.64-5.66,3.12-.53,1.49,0,4.15,1.59,7.99l25.6,62.9ZM921.91,342.59l7.94-19.54,2.68-5.56,27.18-67.96c1.52-3.84,2.02-6.58,1.49-8.24-.53-1.65-2.45-2.81-5.75-3.47l-4.37-.79c-1.39-.26-2.37-.69-2.93-1.29-.56-.6-.84-1.39-.84-2.38,0-1.06.4-1.87,1.19-2.43.79-.56,1.88-.84,3.27-.84h28.47c1.32,0,2.38.3,3.17.89.79.6,1.19,1.42,1.19,2.48,0,.79-.27,1.49-.79,2.08-.53.59-1.49,1.09-2.88,1.49-3.17.79-5.49,1.85-6.95,3.17-1.46,1.32-2.88,3.71-4.27,7.14l-38,94.25c-3.17,7.8-6.22,13.84-9.13,18.11-2.91,4.27-6.04,7.23-9.38,8.88-3.34,1.65-7.23,2.48-11.66,2.48-6.81,0-12.17-1.79-16.07-5.36-3.9-3.57-5.85-7.91-5.85-13,0-3.64.84-6.48,2.53-8.53,1.69-2.05,3.95-3.08,6.8-3.08s4.91.88,6.4,2.63c1.49,1.75,2.63,4.08,3.42,7l.79,3.47c.4,2.38,1.19,4.15,2.38,5.31,1.19,1.16,2.61,1.74,4.27,1.74,1.79,0,3.47-.51,5.06-1.54,1.59-1.03,3.24-2.86,4.96-5.51,1.72-2.65,3.6-6.51,5.66-11.61Z"/>
  </g>
  <path class="cls-1" d="M526.79,152.96c-.27-4.45,5.16-9.01,5.44-10.97.38-2.72,1.42-4.61,2.5-7.07,1.02-2.32.42-6.02-1.14-8.04-1.95-2.52-3.93-5.03-4.83-7.97-.12-.39-.82-.97-1.21-1.03-4.06-.65-8.25-1.72-12.26-2.86-2.52-.71-5-1.47-7.65-1.57l-47.42,14.38c-2.13.64-8.28,2.44-9.72,1.72-1.5-.74,6.35-3.45,6.7-3.59l13.75-5.32c4.95-1.91,15.56-7.42,18.48-12.4-3.48-4.28-14.99-7.02-20.23-7.95l-16.43-2.91c-1.67-.3-3.34-.7-4.95-1.47.14-.83,1.08-1.16,1.8-1.1l18.72,1.5c11.29.9,22.28,1.79,33.6,1.91,8.93.09,16.09-3.16,23.43-7.85-1.93-5.09-.95-13.71.49-18.52.31-1.03-.04-1.96-.89-2.61-3.98-3.04-2.5-4.92-6.06-6.54-6.54-2.99-5.41-6.46-9.86-7.41-4.21-.9-7.01-3.4-10.46-5.56-6.56-4.1-17.02-5.85-21.12-7.93-.26-.13-.63-.74-.68-.97-.28-1.28,2.99-1.7,4.1-1.8,24.32-2.23,47.05,3.38,68.73,14.14,2.48,1.23,4.69,2.71,6.67,4.53,6.44,5.9-1.9,13.51,1.01,21.28.1.26.41.65.6.77s.91-.06,1.08-.2l4.86-3.78c7-5.45,18.71-6.96,24.96.34,2.33,2.72,3.24.85,8.83,3.06.22.09.72.55.71.77-.01.95-5.68,3.39-6.91,4.91-3.44,12.01-14.11,21.53-25.05,26.95l2.79,4.98c1.91,3.41,2.31,7.2.95,10.93-3.75,10.29-14.1,21.55-22.06,29.14-10.48,9.98-22.35,18.11-35.63,23.87-1.94.84-9.55,4.14-10.63,2.49-.88-1.35,2.35-3.9,3.47-4.85,3.61-3.06,6.96-6.16,10.18-9.64,1.21-1.31,2.62-2.03,4.32-2.7,5.79-2.26,10.98-5.8,15.44-9.73-5.7,2.95-10.26,6.74-16.53,8.76,1.6-3.89,4.09-8.41,7.83-10.46,5.69-3.1,11.6-5.57,15.94-10.55-5.06,3.3-9.86,6.39-15.67,8.92ZM522.24,51.91c-3.69-1.95-18.54-3.99-21.4-2.98-.4.14.64.58.81.59,6.77.34,13.94,1.31,20.58,2.39ZM532.24,58.54c-5.94-2.14-11.87-2.75-18.06-2.52.06.35.65.85,1.01.85,5.85.07,11.37.95,17.05,1.67ZM538.19,64.24c-5.31-1.93-10.56-2.09-15.8-1.5.27.68.96.73,1.67.73,4.87-.04,9.56.32,14.13.78ZM537.95,68.86c-3.31-.92-7.06-1.06-10.16.79l10.16-.79ZM536.17,73.74c-2.72-.04-8.68,1.83-8.9,4.4,3.02-2.01,5.89-3.21,8.9-4.4ZM527.08,86.06c2.45-2.45,4.77-4.33,7.74-6.35-2.05-.07-7.81,3.9-7.74,6.35ZM580.8,79.18c-.22-1.38-1.74-1.86-3-1.55-1.48.36-2.43,1.57-2.52,3.03-.07,1.19.69,2.47,1.98,2.92,1.11.39,2.7.21,3.37-.85-1.4.23-2.61.29-3.3-.83-.43-.7-.24-2.14.6-2.76.65-.48,1.8-.28,2.86.04ZM496.2,101.84c-4.34-.64-8.38-1.07-12.69-.97,5.31,3.81,6.67,2.4,12.69.97ZM594.98,79.98c-1.71-.36-3.38-.51-5.06-.26l-2.36,2.56c2.65-1.02,4.84-1.73,7.41-2.3ZM565.5,109.65c9.72-4.67,20.41-14.47,23.71-24.88l-3.09-.58c-2.85-.53-2.57,2.38-8.45,3.05-3.73.43-6.48,3.78-5.63,7.48-4.48,1.43-10.12,3.43-9.18,9.24.34,2.09,1.12,4.15,2.64,5.68ZM498.1,105.13c-1.53-1.1-8.26.04-6.08,1.27,1.49.84,4.87-.07,6.08-1.27ZM498.86,108.99c-2.03-.62-7.5-.91-7.04,1.81,2.47-.3,4.79-.8,7.04-1.81ZM495.63,113.6l8.69-2.7-15.44,2.53-3.58,2.93c3.68-.7,6.8-1.66,10.33-2.76ZM526.77,115.23l-.39-5.34c-5.03-1.06-9.84-.51-14.37,1.98l9.75,2.54c1.67.44,3.29.66,5.02.82ZM541.24,114.71c-4.28-.53-8.01-1.17-11.87-2.56.62,2.52,10.41,3.3,11.87,2.56ZM543.94,119.34c-4.53.34-8.14.41-12.38-.31,1.27,2.76,11.35,1.28,12.38.31ZM546.94,123.44l-10.85,3.36c.5,1.86,10.43-2.36,10.85-3.36ZM536.61,134.36c4.76-1.24,9.07-3.51,12.56-6.98-3.74,2-7.15,4.02-11,5.68-.65.28-1.3.67-1.56,1.29ZM547.6,134.29l-13.66,7.66c-.13.07-.41.41-.49.53-.05.08,0,.23.1.24,2.33.09,12.4-6.26,14.05-8.43Z"/>
</svg>